Coordinates
version=1
nRows=43
nColumns=12
inDegrees=yes

Units are S.I. units (second, meters, Newtons, ...)
Angles are in degrees

endheader
time	SC_y	SC_z	SC_x	AC_y	AC_z	AC_x	GH_y	GH_z	GH_yy	EL_x	PS_y
       0.0              -27.08         -2.386          20.88           31.2         -19.05         -16.65          138.9          13.76         -48.25          134.5          70.26
   0.01342              -27.09         -2.383          20.89           31.2         -19.04         -16.65          138.9          13.76         -48.25          134.5          70.26
   0.02685              -27.09         -2.379          20.89           31.2         -19.04         -16.64          138.9          13.76         -48.25          134.5          70.26
   0.04027              -27.09         -2.375           20.9          31.21         -19.04         -16.64          138.9          13.76         -48.25          134.4          70.26
    0.0537               -27.1         -2.371          20.91          31.21         -19.04         -16.63          138.9          13.77         -48.25          134.4          70.26
   0.06712               -27.1         -2.367          20.92          31.21         -19.04         -16.63          138.9          13.77         -48.25          134.4          70.27
   0.08055              -27.11         -2.362          20.93          31.22         -19.03         -16.62          138.9          13.77         -48.26          134.4          70.27
   0.09397              -27.11         -2.357          20.94          31.22         -19.03         -16.61          138.9          13.77         -48.26          134.3          70.27
    0.1074              -27.12         -2.352          20.95          31.23         -19.03         -16.61          138.9          13.78         -48.26          134.3          70.27
    0.1208              -27.12         -2.346          20.96          31.23         -19.02          -16.6          138.9          13.78         -48.26          134.3          70.27
    0.1342              -27.13          -2.34          20.98          31.24         -19.02         -16.59          138.9          13.79         -48.26          134.2          70.27
    0.1477              -27.14         -2.333          20.99          31.25         -19.02         -16.58          138.9          13.79         -48.27          134.2          70.28
    0.1611              -27.14         -2.326           21.0          31.25         -19.01         -16.57          138.9          13.79         -48.27          134.2          70.28
    0.1745              -27.15         -2.319          21.02          31.26         -19.01         -16.56          138.9           13.8         -48.27          134.1          70.28
    0.1879              -27.16          -2.31          21.04          31.27          -19.0         -16.55          138.9           13.8         -48.28          134.1          70.28
    0.2014              -27.17         -2.301          21.06          31.28          -19.0         -16.54          138.9          13.81         -48.28          134.0          70.28
    0.2148              -27.18         -2.292          21.08          31.29         -18.99         -16.52          138.9          13.82         -48.29          134.0          70.29
    0.2282              -27.19         -2.281           21.1           31.3         -18.98         -16.51          138.9          13.82         -48.29          133.9          70.29
    0.2416               -27.2         -2.269          21.12          31.31         -18.98         -16.49          138.9          13.83          -48.3          133.9          70.29
    0.2551              -27.21         -2.257          21.15          31.32         -18.97         -16.48          138.9          13.84          -48.3          133.8           70.3
    0.2685              -27.22         -2.243          21.18          31.34         -18.96         -16.46          138.9          13.85         -48.31          133.7           70.3
    0.2819              -27.24         -2.227          21.21          31.35         -18.95         -16.43          139.0          13.86         -48.31          133.7          70.31
    0.2953              -27.25          -2.21          21.25          31.37         -18.94         -16.41          139.0          13.87         -48.32          133.6          70.31
    0.3088              -27.27         -2.191          21.28          31.39         -18.93         -16.39          139.0          13.88         -48.33          133.5          70.32
    0.3222              -27.29          -2.17          21.33          31.41         -18.92         -16.36          139.0          13.89         -48.34          133.4          70.32
    0.3356              -27.32         -2.147          21.38          31.43         -18.91         -16.32          139.0          13.91         -48.35          133.2          70.33
     0.349              -27.34         -2.121          21.43          31.46         -18.89         -16.29          139.0          13.93         -48.36          133.1          70.34
    0.3625              -27.37         -2.091          21.49          31.48         -18.87         -16.25          139.0          13.95         -48.37          133.0          70.34
    0.3759               -27.4         -2.058          21.56          31.52         -18.85          -16.2          139.0          13.97         -48.39          132.8          70.35
    0.3893              -27.44          -2.02          21.64          31.55         -18.83         -16.15          139.0          13.99          -48.4          132.6          70.36
    0.4027              -27.48         -1.977          21.73           31.6         -18.81         -16.09          139.0          14.02         -48.42          132.4          70.38
    0.4162              -27.53         -1.928          21.83          31.65         -18.78         -16.02          139.0          14.05         -48.44          132.1          70.39
    0.4296              -27.58          -1.87          21.95           31.7         -18.74         -15.94          139.0          14.09         -48.47          131.8          70.41
     0.443              -27.65         -1.804          22.09          31.77          -18.7         -15.85          139.1          14.13          -48.5          131.5          70.42
    0.4564              -27.72         -1.726          22.25          31.84         -18.66         -15.75          139.1          14.18         -48.53          131.0          70.45
    0.4699              -27.81         -1.635          22.44          31.93         -18.61         -15.62          139.1          14.24         -48.57          130.6          70.47
    0.4833              -27.91         -1.526          22.67          32.04         -18.54         -15.47          139.1          14.31         -48.62          130.0           70.5
    0.4967              -28.04         -1.395          22.94          32.17         -18.46         -15.29          139.2          14.39         -48.67          129.3          70.54
    0.5101              -28.19         -1.237          23.27          32.32         -18.37         -15.07          139.2           14.5         -48.74          128.5          70.58
    0.5236              -28.38         -1.044          23.67          32.51         -18.26         -14.81          139.3          14.62         -48.82          127.5          70.64
     0.537              -28.61        -0.8064          24.16          32.75         -18.12         -14.48          139.3          14.77         -48.93          126.2          70.71
    0.5504               -28.9        -0.5095          24.78          33.04         -17.94         -14.07          139.4          14.96         -49.05          124.7          70.79
    0.5638              -29.26        -0.1356          25.56          33.41         -17.73         -13.56          139.5          15.21         -49.22          122.7           70.9
